<svg id="Layer_1" data-name="Layer 1" xmlns="http://www.w3.org/2000/svg" viewBox="0 0 128.6 66.9"><defs><style>.cls-1{font-size:20px;fill:#e3e9f1;font-family:Palatino-Roman, Palatino;letter-spacing:-0.03em;}.cls-2{letter-spacing:-0.1em;}.cls-3{fill:#6da3c7;}</style></defs><text class="cls-1" transform="translate(0 58.25)">CONSU<tspan class="cls-2" x="69.78" y="0">L</tspan><tspan x="79.96" y="0">TING</tspan></text><rect class="cls-3" x="104.59" y="22.46" width="2.68" height="2.15"/><rect class="cls-3" x="115.82" y="22.46" width="4.56" height="2.15"/><rect class="cls-3" x="109.09" y="10.54" width="2.41" height="2.15"/><rect class="cls-3" x="111.63" y="10.54" width="4.31" height="2.15"/><rect class="cls-3" x="110.2" y="7.56" width="4.62" height="2.15"/><rect class="cls-3" x="106.84" y="16.5" width="2.56" height="2.15"/><rect class="cls-3" x="113.68" y="16.5" width="4.47" height="2.15"/><rect class="cls-3" x="107.96" y="13.52" width="2.52" height="2.15"/><rect class="cls-3" x="112.64" y="13.52" width="4.4" height="2.15"/><rect class="cls-3" x="105.72" y="19.48" width="2.62" height="2.15"/><rect class="cls-3" x="114.75" y="19.48" width="4.51" height="2.15"/><rect class="cls-3" x="103.47" y="25.43" width="17.98" height="2.15"/><rect class="cls-3" x="101.23" y="31.39" width="2.87" height="2.15"/><rect class="cls-3" x="119.02" y="31.39" width="4.67" height="2.15"/><polygon class="cls-3" points="116.95 37.35 116.95 39.5 106.15 39.5 106.15 37.35 96.55 37.35 96.55 39.5 128.45 39.5 128.45 37.35 116.95 37.35"/><rect class="cls-3" x="102.36" y="28.41" width="2.43" height="2.15"/><rect class="cls-3" x="118.02" y="28.41" width="4.56" height="2.15"/><rect class="cls-3" x="100.06" y="34.37" width="2.97" height="2.15"/><rect class="cls-3" x="120.07" y="34.37" width="4.77" height="2.15"/><rect class="cls-3" x="52.64" y="22.46" width="4.15" height="2.15"/><rect class="cls-3" x="76.47" y="22.46" width="4.98" height="2.15"/><rect class="cls-3" x="52.27" y="10.54" width="4.52" height="2.15"/><rect class="cls-3" x="70.37" y="10.54" width="5.9" height="2.15"/><rect class="cls-3" x="49.23" y="7.56" width="23.33" height="2.15"/><rect class="cls-3" x="52.64" y="16.5" width="4.15" height="2.15"/><rect class="cls-3" x="75.42" y="16.5" width="4.8" height="2.15"/><rect class="cls-3" x="52.64" y="13.52" width="4.15" height="2.15"/><rect class="cls-3" x="73.71" y="13.52" width="5.11" height="2.15"/><rect class="cls-3" x="52.64" y="19.48" width="4.15" height="2.15"/><rect class="cls-3" x="76.21" y="19.48" width="4.79" height="2.15"/><rect class="cls-3" x="52.64" y="25.43" width="4.15" height="2.15"/><rect class="cls-3" x="76.17" y="25.43" width="5.09" height="2.15"/><rect class="cls-3" x="52.64" y="31.39" width="4.15" height="2.15"/><rect class="cls-3" x="74.06" y="31.39" width="4.76" height="2.15"/><rect class="cls-3" x="50.5" y="37.35" width="22.06" height="2.15"/><rect class="cls-3" x="75.58" y="28.41" width="4.87" height="2.15"/><rect class="cls-3" x="52.64" y="28.41" width="4.15" height="2.15"/><rect class="cls-3" x="52.38" y="34.37" width="4.41" height="2.15"/><rect class="cls-3" x="71.05" y="34.37" width="5.22" height="2.15"/><rect class="cls-3" x="4.81" y="22.46" width="18.4" height="2.15"/><rect class="cls-3" x="4.44" y="10.54" width="4.62" height="2.15"/><rect class="cls-3" x="22.85" y="10.54" width="5.59" height="2.15"/><rect class="cls-3" x="1.59" y="7.56" width="23.12" height="2.15"/><rect class="cls-3" x="24.14" y="16.5" width="4.92" height="2.15"/><rect class="cls-3" x="4.81" y="16.5" width="4.25" height="2.15"/><rect class="cls-3" x="4.81" y="13.52" width="4.25" height="2.15"/><rect class="cls-3" x="24.4" y="13.52" width="5.02" height="2.15"/><rect class="cls-3" x="4.81" y="19.48" width="4.25" height="2.15"/><rect class="cls-3" x="22.18" y="19.48" width="5.03" height="2.15"/><rect class="cls-3" x="4.81" y="25.43" width="4.25" height="2.15"/><rect class="cls-3" x="15.07" y="25.43" width="5.11" height="2.15"/><rect class="cls-3" x="4.81" y="31.39" width="4.25" height="2.15"/><rect class="cls-3" x="19.57" y="31.39" width="5.41" height="2.15"/><rect class="cls-3" x="2.67" y="37.35" width="7.44" height="2.15"/><rect class="cls-3" x="24.59" y="37.35" width="7.63" height="2.15"/><rect class="cls-3" x="4.81" y="28.41" width="4.25" height="2.15"/><rect class="cls-3" x="17.3" y="28.41" width="5.31" height="2.15"/><rect class="cls-3" x="4.55" y="34.37" width="4.51" height="2.15"/><rect class="cls-3" x="21.97" y="34.37" width="5.29" height="2.15"/></svg>