<?xml version="1.0" encoding="utf-8"?>
<!-- Generator: Adobe Illustrator 24.1.2, SVG Export Plug-In . SVG Version: 6.00 Build 0)  -->
<svg version="1.1" id="Layer_1" xmlns="http://www.w3.org/2000/svg" xmlns:xlink="http://www.w3.org/1999/xlink" x="0px" y="0px"
	 viewBox="0 0 1349.4 633.6" style="enable-background:new 0 0 1349.4 633.6;" xml:space="preserve">
<style type="text/css">
	.st0{fill:#1E354B;}
	.st1{font-family:'Palatino-Roman';}
	.st2{font-size:210px;}
	.st3{letter-spacing:-6;}
	.st4{letter-spacing:-21;}
	.st5{fill:#6DA3C7;}
</style>
<text transform="matrix(1 0 0 1 0 587.2439)" class="st0 st1 st2 st3">CONSU</text>
<text transform="matrix(1 0 0 1 732.6895 587.2439)" class="st0 st1 st2 st4">L</text>
<text transform="matrix(1 0 0 1 839.5801 587.2439)" class="st0 st1 st2 st3">TING</text>
<g>
	<rect x="1098.2" y="211.4" class="st5" width="28.1" height="22.6"/>
	<rect x="1216.1" y="211.4" class="st5" width="47.9" height="22.6"/>
	<rect x="1145.4" y="86.3" class="st5" width="25.3" height="22.6"/>
	<rect x="1172.1" y="86.3" class="st5" width="45.3" height="22.6"/>
	<rect x="1157.1" y="55" class="st5" width="48.5" height="22.6"/>
	<rect x="1121.8" y="148.9" class="st5" width="26.9" height="22.6"/>
	<rect x="1193.6" y="148.9" class="st5" width="46.9" height="22.6"/>
	<rect x="1133.6" y="117.6" class="st5" width="26.5" height="22.6"/>
	<rect x="1182.7" y="117.6" class="st5" width="46.2" height="22.6"/>
	<rect x="1110.1" y="180.2" class="st5" width="27.5" height="22.6"/>
	<rect x="1204.9" y="180.2" class="st5" width="47.4" height="22.6"/>
	<rect x="1086.4" y="242.6" class="st5" width="188.8" height="22.6"/>
	<rect x="1062.9" y="305.2" class="st5" width="30.1" height="22.6"/>
	<rect x="1249.7" y="305.2" class="st5" width="49" height="22.6"/>
	<polygon class="st5" points="1228,367.8 1228,390.4 1114.6,390.4 1114.6,367.8 1013.8,367.8 1013.8,390.4 1348.7,390.4 
		1348.7,367.8 	"/>
	<rect x="1074.8" y="273.9" class="st5" width="25.5" height="22.6"/>
	<rect x="1239.2" y="273.9" class="st5" width="47.9" height="22.6"/>
	<rect x="1050.6" y="336.5" class="st5" width="31.2" height="22.6"/>
	<rect x="1260.7" y="336.5" class="st5" width="50.1" height="22.6"/>
</g>
<g>
	<rect x="552.7" y="211.4" class="st5" width="43.6" height="22.6"/>
	<rect x="802.9" y="211.4" class="st5" width="52.3" height="22.6"/>
	<rect x="548.8" y="86.3" class="st5" width="47.5" height="22.6"/>
	<rect x="738.9" y="86.3" class="st5" width="62" height="22.6"/>
	<rect x="516.9" y="55" class="st5" width="245" height="22.6"/>
	<rect x="552.7" y="148.9" class="st5" width="43.6" height="22.6"/>
	<rect x="791.9" y="148.9" class="st5" width="50.4" height="22.6"/>
	<rect x="552.7" y="117.6" class="st5" width="43.6" height="22.6"/>
	<rect x="774" y="117.6" class="st5" width="53.7" height="22.6"/>
	<rect x="552.7" y="180.2" class="st5" width="43.6" height="22.6"/>
	<rect x="800.2" y="180.2" class="st5" width="50.3" height="22.6"/>
	<rect x="552.7" y="242.6" class="st5" width="43.6" height="22.6"/>
	<rect x="799.8" y="242.6" class="st5" width="53.4" height="22.6"/>
	<rect x="552.7" y="305.2" class="st5" width="43.6" height="22.6"/>
	<rect x="777.6" y="305.2" class="st5" width="50" height="22.6"/>
	<rect x="530.3" y="367.8" class="st5" width="231.6" height="22.6"/>
	<rect x="793.6" y="273.9" class="st5" width="51.1" height="22.6"/>
	<rect x="552.7" y="273.9" class="st5" width="43.6" height="22.6"/>
	<rect x="550" y="336.5" class="st5" width="46.3" height="22.6"/>
	<rect x="746" y="336.5" class="st5" width="54.8" height="22.6"/>
</g>
<g>
	<rect x="50.5" y="211.4" class="st5" width="193.2" height="22.6"/>
	<rect x="46.6" y="86.3" class="st5" width="48.5" height="22.6"/>
	<rect x="239.9" y="86.3" class="st5" width="58.7" height="22.6"/>
	<rect x="16.7" y="55" class="st5" width="242.8" height="22.6"/>
	<rect x="253.5" y="148.9" class="st5" width="51.7" height="22.6"/>
	<rect x="50.5" y="148.9" class="st5" width="44.6" height="22.6"/>
	<rect x="50.5" y="117.6" class="st5" width="44.6" height="22.6"/>
	<rect x="256.2" y="117.6" class="st5" width="52.7" height="22.6"/>
	<rect x="50.5" y="180.2" class="st5" width="44.6" height="22.6"/>
	<rect x="232.9" y="180.2" class="st5" width="52.8" height="22.6"/>
	<rect x="50.5" y="242.6" class="st5" width="44.6" height="22.6"/>
	<rect x="158.2" y="242.6" class="st5" width="53.7" height="22.6"/>
	<rect x="50.5" y="305.2" class="st5" width="44.6" height="22.6"/>
	<rect x="205.5" y="305.2" class="st5" width="56.8" height="22.6"/>
	<rect x="28" y="367.8" class="st5" width="78.1" height="22.6"/>
	<rect x="258.2" y="367.8" class="st5" width="80.1" height="22.6"/>
	<rect x="50.5" y="273.9" class="st5" width="44.6" height="22.6"/>
	<rect x="181.7" y="273.9" class="st5" width="55.8" height="22.6"/>
	<rect x="47.8" y="336.5" class="st5" width="47.4" height="22.6"/>
	<rect x="230.7" y="336.5" class="st5" width="55.5" height="22.6"/>
</g>
</svg>
