<?xml version="1.0" encoding="utf-8"?>
<!-- Generator: Adobe Illustrator 24.1.2, SVG Export Plug-In . SVG Version: 6.00 Build 0)  -->
<svg version="1.1" id="Layer_1" xmlns="http://www.w3.org/2000/svg" xmlns:xlink="http://www.w3.org/1999/xlink" x="0px" y="0px"
	 viewBox="0 0 128.6 66.9" style="enable-background:new 0 0 128.6 66.9;" xml:space="preserve">
<style type="text/css">
	.st0{fill:#1E354B;}
	.st1{font-family:'Palatino-Roman';}
	.st2{font-size:20px;}
	.st3{letter-spacing:-2;}
	.st4{fill:#6DA3C7;}
</style>
<text transform="matrix(1 0 0 1 0 58.25)" class="st0 st1 st2">CONSU</text>
<text transform="matrix(1 0 0 1 69.78 58.25)" class="st0 st1 st2 st3">L</text>
<text transform="matrix(1 0 0 1 79.96 58.25)" class="st0 st1 st2">TING</text>
<g>
	<rect x="104.6" y="22.5" class="st4" width="2.7" height="2.1"/>
	<rect x="115.8" y="22.5" class="st4" width="4.6" height="2.1"/>
	<rect x="109.1" y="10.5" class="st4" width="2.4" height="2.2"/>
	<rect x="111.6" y="10.5" class="st4" width="4.3" height="2.2"/>
	<rect x="110.2" y="7.6" class="st4" width="4.6" height="2.2"/>
	<rect x="106.8" y="16.5" class="st4" width="2.6" height="2.1"/>
	<rect x="113.7" y="16.5" class="st4" width="4.5" height="2.1"/>
	<rect x="108" y="13.5" class="st4" width="2.5" height="2.1"/>
	<rect x="112.6" y="13.5" class="st4" width="4.4" height="2.1"/>
	<rect x="105.7" y="19.5" class="st4" width="2.6" height="2.1"/>
	<rect x="114.8" y="19.5" class="st4" width="4.5" height="2.1"/>
	<rect x="103.5" y="25.4" class="st4" width="18" height="2.1"/>
	<rect x="101.2" y="31.4" class="st4" width="2.9" height="2.2"/>
	<rect x="119" y="31.4" class="st4" width="4.7" height="2.2"/>
	<polygon class="st4" points="116.9,37.3 116.9,39.5 106.2,39.5 106.2,37.3 96.6,37.3 96.6,39.5 128.4,39.5 128.4,37.3 	"/>
	<rect x="102.4" y="28.4" class="st4" width="2.4" height="2.1"/>
	<rect x="118" y="28.4" class="st4" width="4.6" height="2.1"/>
	<rect x="100.1" y="34.4" class="st4" width="3" height="2.2"/>
	<rect x="120.1" y="34.4" class="st4" width="4.8" height="2.2"/>
</g>
<g>
	<rect x="52.6" y="22.5" class="st4" width="4.2" height="2.1"/>
	<rect x="76.5" y="22.5" class="st4" width="5" height="2.1"/>
	<rect x="52.3" y="10.5" class="st4" width="4.5" height="2.2"/>
	<rect x="70.4" y="10.5" class="st4" width="5.9" height="2.2"/>
	<rect x="49.2" y="7.6" class="st4" width="23.3" height="2.2"/>
	<rect x="52.6" y="16.5" class="st4" width="4.2" height="2.1"/>
	<rect x="75.4" y="16.5" class="st4" width="4.8" height="2.1"/>
	<rect x="52.6" y="13.5" class="st4" width="4.2" height="2.1"/>
	<rect x="73.7" y="13.5" class="st4" width="5.1" height="2.1"/>
	<rect x="52.6" y="19.5" class="st4" width="4.2" height="2.1"/>
	<rect x="76.2" y="19.5" class="st4" width="4.8" height="2.1"/>
	<rect x="52.6" y="25.4" class="st4" width="4.2" height="2.1"/>
	<rect x="76.2" y="25.4" class="st4" width="5.1" height="2.1"/>
	<rect x="52.6" y="31.4" class="st4" width="4.2" height="2.2"/>
	<rect x="74.1" y="31.4" class="st4" width="4.8" height="2.2"/>
	<rect x="50.5" y="37.3" class="st4" width="22.1" height="2.2"/>
	<rect x="75.6" y="28.4" class="st4" width="4.9" height="2.1"/>
	<rect x="52.6" y="28.4" class="st4" width="4.2" height="2.1"/>
	<rect x="52.4" y="34.4" class="st4" width="4.4" height="2.2"/>
	<rect x="71.1" y="34.4" class="st4" width="5.2" height="2.2"/>
</g>
<g>
	<rect x="4.8" y="22.5" class="st4" width="18.4" height="2.1"/>
	<rect x="4.4" y="10.5" class="st4" width="4.6" height="2.2"/>
	<rect x="22.9" y="10.5" class="st4" width="5.6" height="2.2"/>
	<rect x="1.6" y="7.6" class="st4" width="23.1" height="2.2"/>
	<rect x="24.1" y="16.5" class="st4" width="4.9" height="2.1"/>
	<rect x="4.8" y="16.5" class="st4" width="4.2" height="2.1"/>
	<rect x="4.8" y="13.5" class="st4" width="4.2" height="2.1"/>
	<rect x="24.4" y="13.5" class="st4" width="5" height="2.1"/>
	<rect x="4.8" y="19.5" class="st4" width="4.2" height="2.1"/>
	<rect x="22.2" y="19.5" class="st4" width="5" height="2.1"/>
	<rect x="4.8" y="25.4" class="st4" width="4.2" height="2.1"/>
	<rect x="15.1" y="25.4" class="st4" width="5.1" height="2.1"/>
	<rect x="4.8" y="31.4" class="st4" width="4.2" height="2.2"/>
	<rect x="19.6" y="31.4" class="st4" width="5.4" height="2.2"/>
	<rect x="2.7" y="37.3" class="st4" width="7.4" height="2.2"/>
	<rect x="24.6" y="37.3" class="st4" width="7.6" height="2.2"/>
	<rect x="4.8" y="28.4" class="st4" width="4.2" height="2.1"/>
	<rect x="17.3" y="28.4" class="st4" width="5.3" height="2.1"/>
	<rect x="4.6" y="34.4" class="st4" width="4.5" height="2.2"/>
	<rect x="22" y="34.4" class="st4" width="5.3" height="2.2"/>
</g>
</svg>
